<svg width="25" height="24" viewBox="0 0 25 24" fill="none" xmlns="http://www.w3.org/2000/svg">
<path d="M0.78125 3.99961C0.78125 3.36309 1.02818 2.75264 1.46772 2.30255C1.90726 1.85247 2.5034 1.59961 3.125 1.59961H21.875C22.4966 1.59961 23.0927 1.85247 23.5323 2.30255C23.9718 2.75264 24.2188 3.36309 24.2188 3.99961V5.93241L12.5 12.6812L0.78125 5.93241V3.99961Z" fill="#C6A460"/>
<path d="M0.78125 7.7682V20.0002C0.78125 20.6367 1.02818 21.2472 1.46772 21.6973C1.90726 22.1473 2.5034 22.4002 3.125 22.4002H21.875C22.4966 22.4002 23.0927 22.1473 23.5323 21.6973C23.9718 21.2472 24.2188 20.6367 24.2188 20.0002V7.7682L12.5 14.5186L0.78125 7.7666V7.7682Z" fill="#C6A460"/>
</svg>
